<svg xmlns:xlink="http://www.w3.org/1999/xlink" xmlns="http://www.w3.org/2000/svg" viewBox="0 0 1969.08 1756.853">
    <defs>
        <linearGradient id="a" x1="1086.723" y1="1255.796" x2="1442.091" y2="1658.401" gradientUnits="userSpaceOnUse">
            <stop offset="0" stop-color="#622e88"/>
            <stop offset="1" stop-color="#472682"/>
        </linearGradient>
        <linearGradient id="b" x1="994.256" y1="678.095" x2="1289.266" y2="1012.32" xlink:href="#a"/>
        <linearGradient id="c" x1="334.828" y1="419.608" x2="389.821" y2="481.911" xlink:href="#a"/>
        <linearGradient id="d" x1="864.594" y1="106.933" x2="1253.256" y2="547.258" xlink:href="#a"/>
        <linearGradient id="e" x1="1383.713" y1="971.242" x2="1549.573" y2="1159.149" xlink:href="#a"/>
        <linearGradient id="f" x1="1397.616" y1="652.711" x2="1595.183" y2="876.54" xlink:href="#a"/>
        <linearGradient id="g" x1="1285.044" y1="833.116" x2="1423.295" y2="989.744" xlink:href="#a"/>
    </defs>
    <polygon
            points="327.123 311.051 149.361 422.148 50.259 582.622 40.321 751.326 139.074 959.119 297.491 1036.176 431.22 1158.683 484.287 1226.576 727.274 1339.731 807.717 1328.26 768.743 1542.661 873.552 1696.528 1034.026 1728.572 1301.218 1662.737 1496.932 1728.572 1737.644 1674.668 1809.651 1575.372 1778.791 1465.782 1891.946 1382.37 1939.265 1251.265 1910.992 1076.389 1846.684 1036.176 1910.992 907.736 1881.659 736.924 1774.676 644.343 1760.275 460.645 1636.833 372.95 1587.456 362.485 1560.711 280.19 1282.967 95.028 867.38 47.708 521.743 115.601 327.123 263.731 327.123 311.051"
            style="fill:#ee7a93"/>
    <path d="M833.576,1293.1s27.432,441.646,436.161,349.751l-202.012,91.895-202.6-38.216-82.294-129.116,13.716-164.589Z"
          transform="translate(0 0)" style="fill:#e65871"/>
    <path d="M1315.123,1615.417S1764.875,1751.2,1779.962,1481l31.546,100.125-23.316,78.18-141.272,54.863-205.737,8.229-93.951-34.289Z"
          transform="translate(0 0)" style="fill:#e65871"/>
    <path d="M1153.153,1257.437s166.788,139.9,304.56,229.4l-225.352-126.527Z" transform="translate(0 0)"
          style="fill:#e65871"/>
    <path d="M1528.621,926.887s62.067,218.423-181.389,208.137l137.5,28.117,77.789-65.836,10.677-82.294Z"
          transform="translate(0 0)" style="fill:#e65871"/>
    <path d="M354.155,989.2c91.062,117.955,370.863,353.866,488.818,285.973,0,0-48.69,87.1-52.8,87.1s-161.846-37.032-161.846-37.032L443.16,1206.051S263.093,871.24,354.155,989.2Z"
          transform="translate(0 0)" style="fill:#e65871"/>
    <path d="M105.956,733.838s28.8,272.6,128.585,154.3-17.487,132.7-17.487,132.7-83.323-68.921-85.381-74.065S69.952,797.616,69.952,797.616Z"
          transform="translate(0 0)" style="fill:#e65871"/>
    <path d="M778.713,271.961S1258.421,412.89,1284.824,410.49l-204.022-26.4L828.09,301.45Z" transform="translate(0 0)"
          style="fill:#e65871"/>
    <path d="M1030.226,693.463s74.065,61.72,181.3-12.087l-100.64,111.1-42.176-51.434Z" transform="translate(0 0)"
          style="fill:#e65871"/>
    <path d="M112.128,723.552s-57.606,5.143-60.177-72.78l-9.773,81.78L72.267,766.5Z" transform="translate(0 0)"
          style="fill:#e65871"/>
    <path d="M1373.805,736.924c-1.84-8.118,50.941-49.122,112.64-42.519,16.222,1.736,32.167,3.651,46.977,15.431,19.889,15.82,25.138,39.42,30.86,65.149,2.8,12.581-6.518,35.45-12,38.576-5.187,2.958-12.543-9.977-17.488-21.088-6.029-13.549,11.284-24.641,8.916-39.09-3.23-19.7-27.221-35.857-48.005-40.118-24.257-4.973-32.237,8.7-75.437,13.715C1405.7,728.672,1375.183,743,1373.805,736.924Z"
          transform="translate(0 0)" style="fill:#fff"/>
    <path d="M1127.436,1432.055c-2.806-4.96,24.157-35.8,61.206-42.176,43.827-7.547,88.185,21.467,86.152,31.889-1.254,6.433-21.259,11.311-34.975,4.629-12.6-6.138-10.471-17.444-21.088-21.859-11.916-4.956-21.483,6.423-54,18.516C1153.807,1427.114,1129.71,1436.074,1127.436,1432.055Z"
          transform="translate(0 0)" style="fill:#fff"/>
    <path d="M1760.417,1063.7c35.046-14.953,101.248,36.017,124.813,97.381,15.1,39.327,18.991,99.317-8.229,114.527-16.51,9.226-44.8,2.165-52.12-13.03-9.943-20.634,26.69-39.852,26.06-80.923-.416-27.15-17.017-57.36-41.147-68.579-31.574-14.679-62.984,9.227-72.008-3.428C1730.605,1099.579,1741.469,1071.787,1760.417,1063.7Z"
          transform="translate(0 0)" style="fill:#fff"/>
    <path d="M1595.486,402.6c16.18-13.377,69.662,12.6,97.724,53.492,21.624,31.507,32.617,78.371,17.488,89.5-12.4,9.117-45.069-3.776-53.492-24.689-8.969-22.268,14.717-40.814,5.144-56.577-11.41-18.787-50.7-1.738-66.864-23.659C1586.988,429.14,1586.955,409.656,1595.486,402.6Z"
          transform="translate(0 0)" style="fill:#fff"/>
    <path d="M90.183,599.081c-5.493-3.52,18.259-51.453,41.147-87.781,38.269-60.738,68.376-79.914,89.153-89.152,8-3.559,34.046-15.138,41.147-6.858,6.835,7.971-4.06,34.14-23.317,46.634-17.007,11.035-27.067,2.665-45.262,10.972-21.25,9.7-22.846,28.113-43.89,61.721C126.337,571.067,95.128,602.25,90.183,599.081Z"
          transform="translate(0 0)" style="fill:#fff"/>
    <path d="M734.823,568.907c-30.134-37.366-131.619-.881-164.589,10.972C520.968,597.591,456.606,620.73,453.65,660.8c-1.453,19.707,12,42.739,27.432,45.262,22.378,3.659,29.118-39.054,75.436-64.464,12.384-6.793,40.259-11.387,96.01-20.574,56.881-9.372,84.056-11.492,89.153-27.431C745.312,582.237,735.753,570.06,734.823,568.907Z"
          transform="translate(0 0)" style="fill:#fff"/>
    <path d="M948.788,112.172c-58.924-35.359-131.819-31.558-134.414-6.591-.454,4.369,4.538,9.1,27.432,20.574,89.786,44.986,177.346,54.492,181.047,54.863,231.354,23.178,257.917,14.643,299,48.005,23.208,18.845,34.156,37.339,75.436,64.464,45.61,29.969,106.338,56.077,113.841,45.262,7.375-10.633-35.973-57.985-82.3-89.152-32.787-22.061-62.342-32.837-93.267-43.891-63.18-22.584-68.933-13.347-126.184-34.289-65.409-23.926-69.318-40.159-102.869-38.4-46.033,2.408-76.672,34.956-89.152,23.317C1008.147,147.731,964.541,121.626,948.788,112.172Z"
          transform="translate(0 0)" style="fill:#fff"/>
    <polygon
            points="646.799 808.932 572.977 888.14 585.708 971.463 689.72 1036.176 772.657 977.636 772.657 866.622 646.799 808.932"
            style="fill:#fff"/>
    <path d="M1135.618,1212.638c9.258,113.991,30.86,115.225-67.893,264.371,116.755-146.871,131.671-134.527,494.8,75.093C1286.319,1327.566,1257.259,1415.545,1135.618,1212.638Z"
          transform="translate(0 0)" style="fill:url(#a)"/>
    <path d="M1136.647,1147.033s29.521-128.881,6.814-289.574c-10.029-70.979,25.978-135.325,113.8-189.02,0,0-61.978,0-115.983,60.949-17.488,18-23.782,24.046-31.118,37.29-11.566-8.1-23.66-57.864-113.412-90.781C1030,710.785,1085.467,784.5,1109.9,878.675,1143.817,1009.407,1136.647,1147.033,1136.647,1147.033Z"
          transform="translate(0 0)" style="fill:url(#b)"/>
    <path d="M228.836,548.34c115.482-130.758,136.3-107.5,284.43-175.39C293.875,428.5,273.828,457.675,228.836,548.34Z"
          transform="translate(0 0)" style="fill:url(#c)"/>
    <path d="M704.967,675.383c-101.36,17.933-105.68,20.893-153.53,133.781-51.58,121.684,27.663,222.216,139.887,248.114,106.982,24.688,145.693-65.455,148.658-185.932C843.18,741.354,832.42,652.832,704.967,675.383ZM736.6,935.8c-11.363,43.934-31.247,49.377-74.451,57.864-41.392,8.131-71.112-21.805-58.635-65.435,15.816-55.307,44.361-79.852,75.608-86.409C722.922,832.63,748.172,891.056,736.6,935.8Z"
          transform="translate(0 0)" style="fill:#472a80"/>
    <path d="M1013.462,515.68c89.5-158.159,36.261-120.356,379.583-91.81C1273.2,409.094,820.584,333.741,724.917,230.221,841.415,372.95,1127,318.945,1013.462,515.68Z"
          transform="translate(0 0)" style="fill:url(#d)"/>
    <path d="M1903.012,1024.445c41.661-108.058,64.807-303.915-104.925-391.868,32.4-275-190.408-293.9-190.408-293.9s7.1-113.519-192.262-210.73C1279.77,61.808,984.54-48.642,909.214,23.635c0,0-175.748-14.77-340.236,47.834-103.383,39.347-197.86,92.838-305.695,242,0,0-161.84,78.952-218.16,218.6S1.147,749.627,1.147,749.627s1.542,95.164,59.406,117.79c0,0-9.039,68.144,71.088,142.98,67.445,62.992,121.813,86.015,167.251,93.126-27.443,32.013-72.334,85.527-73.493,94.351-1.672,12.73,80.366,97.082,96.7,97.982.257,14.53,47.7,52.334,65.578,57.349,11.573,17.938,77,54.006,100.528,52.463,20.83,20.445,97.365,35.875,106.494,33.689,7.162-1.714,57.517-60.547,78.895-85.834,63.2,17.548,105.668,24.113,105.668,24.113s-4.572,12.244-10.344,31.99c-30.6,1.427-76.294,4.911-85.367,13.143-13.887,12.6-18.712,74.837-12.73,87.181-7.564,13.116-6.3,66.35.386,84.866-5.764,19.031,14.145,109.864,28.546,114.57,8.752,2.86,48.453-17.982,78.266-34.778a117.257,117.257,0,0,0,10.586,12.147c138.647,136.246,408.88,29.883,559.309,41.147,0,0,126.05,37.032,286.524,11.573s189.713-74.5,196.961-90.8,46.928-90.348-30.223-175.214C2049.6,1391.684,1966.276,1098.51,1903.012,1024.445Zm-147.264,439.376c29.7,55.162,31.67,123.173-8.58,167.977-47.833,53.247-187.328,61.978-187.328,61.978s-170.652,26.231-240.6-110.583c0,0-219.793,184.981-422.273,82.3-144.015-73.037-90.505-206.073-36.518-441.819-24.174,58.635-73.551,95.667-100.3,95.153-55.169-1.061-165.96-43.737-227.338-100.3-88.949-81.966-142.987-146.587-176.933-298.951C344.336,867.768,338.391,783.98,396,692.356c104.071-165.529,333.01-169.439,357.466-165.618,66.259,10.352,115.567,42.945,149.673,61.721A367.1,367.1,0,0,0,806.7,512.851c-163.975-88.49-336.093-14.728-344.865-10.8C279.619,583.637,237.824,776.5,229.351,825.056c-7.088,40.61-11.548,79.684-9.283,110.77,1.651,22.664-11.668,40.724-29.844,27.085l-9.17-6.565c-107.3-80.727-57.072-228.816-54.829-254.732,0,0-31.767,33.065-40.89,30.089-30.741-10.03-32.734-51.617-30.515-69.93,3.644-30.079,24.513-103.5,36.173-128.348S202.219,388.877,287.471,356.749s241.216-60.178,297.284-119.584c0,0-58.116,29.317-178.472,23.917,0,0-29.58-.369-13.054-23.523S558.012,80.841,829.071,74.634c269.514-6.173,459.306,74.065,539.543,114.7s205.114,65.815,207.114,194.247c115.213-28.8,249.455,164.762,142.987,313.747,132.7-86.409,286.736,233,41.662,345.636,177.447-6.785,165.1,148.787,140.414,270.543S1806.281,1390.913,1755.748,1463.821Z"
          transform="translate(0 0)" style="fill:#472a80"/>
    <path d="M1486.4,880.605c185.934,243.8-61.721,305.719-171.275,225.28C1429.306,1314.193,1778.8,1105.885,1486.4,880.605Z"
          transform="translate(0 0)" style="fill:url(#e)"/>
    <path d="M1310.494,738.646c171.789-93.377,313.747-93.377,249.346,169.09C1718.88,709.329,1495.656,501.021,1310.494,738.646Z"
          transform="translate(0 0)" style="fill:url(#f)"/>
    <path d="M1361.028,766.048s45.868,119.559-13.8,290.834C1347.232,1056.882,1467.276,878.174,1361.028,766.048Z"
          transform="translate(0 0)" style="fill:url(#g)"/>
    <polygon points="346.012 1130.753 270.543 1203.532 334.953 1272.57 391.531 1201.661 346.012 1130.753"
             style="fill:#fff"/>
    <polygon points="425.621 1214.495 359.159 1293.136 391.531 1328.26 471.525 1250.323 425.621 1214.495"
             style="fill:#fff"/>
    <polygon points="426.032 1344.186 501.471 1267.696 550.37 1289.011 482.955 1379.18 426.032 1344.186"
             style="fill:#fff"/>
    <polygon
            points="575.536 1303.186 524.616 1393.452 582.865 1412.354 646.799 1332.802 604.082 1323.438 575.536 1303.186"
            style="fill:#fff"/>
    <polygon points="772.657 1639.179 708.622 1674.668 689.72 1607.004 759.156 1590.802 772.657 1639.179"
             style="fill:#fff"/>
    <polygon points="760.313 1559.17 688.562 1575.372 688.562 1522.295 760.313 1509.951 760.313 1559.17"
             style="fill:#fff"/>
    <polygon points="688.562 1494.52 760.313 1482.948 772.657 1437.043 700.135 1440.9 688.562 1494.52"
             style="fill:#fff"/>
</svg>
